<svg xmlns="http://www.w3.org/2000/svg" xmlns:xlink="http://www.w3.org/1999/xlink" width="1000" zoomAndPan="magnify" viewBox="0 0 750 299.999988" height="400" preserveAspectRatio="xMidYMid meet" version="1.2"><defs><clipPath id="b95d77bc18"><path d="M 43.9375 207 L 108 207 L 108 270.867188 L 43.9375 270.867188 Z M 43.9375 207 "/></clipPath><clipPath id="f4df0ac938"><path d="M 128.609375 29 L 192 29 L 192 92.375 L 128.609375 92.375 Z M 128.609375 29 "/></clipPath><clipPath id="f32f268498"><path d="M 632.785156 168 L 712 168 L 712 212 L 632.785156 212 Z M 632.785156 168 "/></clipPath></defs><g id="3990d60d93"><g style="fill:#39bb01;fill-opacity:1;"><g transform="translate(216.496668, 208.40926)"><path style="stroke:none" d="M 22.289062 1.363281 C 21.667969 1.363281 21.175781 1.125 20.820312 0.648438 C 20.554688 0.296875 20.421875 -0.144531 20.421875 -0.671875 L 20.589844 -48.265625 L 21.953125 -48.261719 L 20.660156 -47.835938 L -1.8125 -115.585938 L -1.824219 -115.632812 C -1.984375 -116.277344 -1.894531 -116.828125 -1.550781 -117.285156 C -1.195312 -117.757812 -0.675781 -117.996094 0 -117.996094 L 18.601562 -117.996094 C 19.867188 -117.996094 20.644531 -117.429688 20.925781 -116.292969 L 19.605469 -115.964844 L 20.917969 -116.324219 L 33.320312 -71.246094 L 32.007812 -70.886719 L 30.695312 -71.25 L 43.265625 -116.332031 L 44.574219 -115.964844 L 43.253906 -116.292969 C 43.539062 -117.429688 44.257812 -117.996094 45.414062 -117.996094 L 64.183594 -117.996094 C 64.859375 -117.996094 65.375 -117.757812 65.734375 -117.285156 C 66.074219 -116.828125 66.167969 -116.277344 66.007812 -115.632812 L 65.992188 -115.582031 L 43.351562 -48.496094 L 42.0625 -48.933594 L 43.425781 -48.9375 L 43.589844 -0.675781 C 43.589844 -0.0742188 43.402344 0.417969 43.023438 0.796875 C 42.648438 1.171875 42.160156 1.363281 41.558594 1.363281 Z M 22.289062 -1.363281 L 41.558594 -1.363281 C 41.40625 -1.363281 41.253906 -1.285156 41.097656 -1.128906 C 40.945312 -0.976562 40.867188 -0.820312 40.867188 -0.664062 L 40.699219 -49.152344 L 63.394531 -116.398438 L 64.683594 -115.964844 L 63.363281 -116.292969 C 63.316406 -116.097656 63.378906 -115.882812 63.554688 -115.648438 C 63.742188 -115.398438 63.953125 -115.273438 64.183594 -115.273438 L 45.414062 -115.273438 C 45.675781 -115.273438 45.835938 -115.394531 45.898438 -115.632812 L 45.890625 -115.617188 L 32 -65.785156 L 18.289062 -115.617188 L 18.285156 -115.632812 C 18.316406 -115.515625 18.390625 -115.417969 18.515625 -115.335938 C 18.5625 -115.304688 18.605469 -115.28125 18.648438 -115.273438 C 18.644531 -115.273438 18.628906 -115.273438 18.601562 -115.273438 L 0 -115.273438 C 0.230469 -115.273438 0.441406 -115.398438 0.628906 -115.648438 C 0.804688 -115.882812 0.867188 -116.097656 0.816406 -116.292969 L -0.503906 -115.964844 L 0.789062 -116.394531 L 23.316406 -48.480469 L 23.148438 -0.671875 C 23.148438 -0.75 23.097656 -0.855469 23 -0.984375 C 22.8125 -1.234375 22.574219 -1.363281 22.289062 -1.363281 Z M 22.289062 -1.363281 "/></g></g><g style="fill:#39bb01;fill-opacity:1;"><g transform="translate(283.690751, 208.40926)"><path style="stroke:none" d="M 8.210938 1.363281 C 7.421875 1.363281 6.789062 1.152344 6.308594 0.730469 C 5.777344 0.265625 5.507812 -0.371094 5.507812 -1.171875 L 5.339844 -115.292969 C 5.339844 -116.117188 5.585938 -116.773438 6.074219 -117.261719 C 6.566406 -117.75 7.222656 -117.996094 8.042969 -117.996094 L 24.023438 -117.996094 L 52.699219 -51.144531 L 51.445312 -50.609375 L 50.085938 -50.589844 L 49.246094 -115.277344 C 49.246094 -116.144531 49.523438 -116.824219 50.082031 -117.316406 C 50.589844 -117.769531 51.269531 -117.996094 52.117188 -117.996094 L 68.707031 -117.996094 C 69.496094 -117.996094 70.109375 -117.703125 70.550781 -117.117188 C 70.898438 -116.652344 71.074219 -116.042969 71.074219 -115.292969 L 71.242188 -1.007812 C 71.242188 -0.34375 71.066406 0.199219 70.71875 0.621094 C 70.304688 1.113281 69.746094 1.363281 69.042969 1.363281 L 53.429688 1.363281 L 24.070312 -61.089844 L 25.304688 -61.667969 L 26.664062 -61.695312 L 27.839844 -1.367188 C 27.839844 -0.496094 27.5625 0.1875 27.003906 0.683594 C 26.496094 1.136719 25.816406 1.363281 24.96875 1.363281 Z M 8.210938 -1.363281 L 24.96875 -1.363281 C 25.089844 -1.363281 25.179688 -1.371094 25.242188 -1.390625 C 25.238281 -1.386719 25.222656 -1.375 25.195312 -1.351562 C 25.152344 -1.316406 25.125 -1.273438 25.109375 -1.230469 C 25.113281 -1.246094 25.117188 -1.273438 25.117188 -1.3125 L 23.941406 -61.640625 L 26.535156 -62.25 L 55.527344 -0.578125 L 54.296875 0 L 54.296875 -1.363281 L 69.042969 -1.363281 C 68.898438 -1.363281 68.757812 -1.28125 68.625 -1.125 C 68.570312 -1.058594 68.535156 -0.992188 68.515625 -0.929688 C 68.519531 -0.9375 68.519531 -0.960938 68.519531 -1.003906 L 68.351562 -115.292969 C 68.351562 -115.40625 68.34375 -115.492188 68.328125 -115.550781 C 68.332031 -115.539062 68.347656 -115.519531 68.371094 -115.484375 C 68.476562 -115.34375 68.589844 -115.273438 68.707031 -115.273438 L 52.117188 -115.273438 C 51.996094 -115.273438 51.90625 -115.265625 51.84375 -115.246094 C 51.847656 -115.246094 51.863281 -115.257812 51.890625 -115.28125 C 51.933594 -115.320312 51.960938 -115.359375 51.976562 -115.402344 C 51.972656 -115.390625 51.96875 -115.359375 51.96875 -115.3125 L 52.808594 -50.625 L 50.195312 -50.070312 L 21.875 -116.097656 L 23.125 -116.636719 L 23.125 -115.273438 L 8.042969 -115.273438 C 7.96875 -115.273438 7.914062 -115.269531 7.886719 -115.257812 C 7.921875 -115.269531 7.960938 -115.296875 8 -115.335938 C 8.039062 -115.375 8.066406 -115.414062 8.078125 -115.449219 C 8.070312 -115.421875 8.066406 -115.371094 8.066406 -115.296875 L 8.230469 -1.171875 L 8.226562 -1.144531 C 8.203125 -1.210938 8.160156 -1.265625 8.101562 -1.316406 C 8.0625 -1.351562 8.03125 -1.375 8.007812 -1.378906 C 8.050781 -1.367188 8.117188 -1.363281 8.210938 -1.363281 Z M 8.210938 -1.363281 "/></g></g><g style="fill:#39bb01;fill-opacity:1;"><g transform="translate(361.441519, 208.40926)"><path style="stroke:none" d="M 7.375 1.363281 C 6.714844 1.363281 6.191406 1.121094 5.808594 0.640625 C 5.496094 0.253906 5.339844 -0.238281 5.339844 -0.839844 L 5.507812 -115.964844 C 5.507812 -116.566406 5.699219 -117.050781 6.074219 -117.429688 C 6.453125 -117.808594 6.941406 -117.996094 7.542969 -117.996094 L 61.332031 -117.996094 C 61.992188 -117.996094 62.515625 -117.757812 62.898438 -117.277344 C 63.210938 -116.886719 63.367188 -116.394531 63.367188 -115.796875 L 63.367188 -97.027344 C 63.367188 -96.429688 63.175781 -95.941406 62.800781 -95.5625 C 62.421875 -95.183594 61.933594 -94.996094 61.332031 -94.996094 L 26.980469 -94.996094 L 26.980469 -96.359375 L 28.34375 -96.359375 L 28.34375 -70.214844 L 26.980469 -70.214844 L 26.980469 -71.578125 L 61.332031 -71.578125 C 61.933594 -71.578125 62.421875 -71.386719 62.800781 -71.011719 C 63.175781 -70.632812 63.367188 -70.144531 63.367188 -69.546875 L 63.535156 -50.621094 C 63.535156 -50.011719 63.34375 -49.519531 62.96875 -49.144531 C 62.589844 -48.765625 62.101562 -48.578125 61.5 -48.578125 L 26.980469 -48.578125 L 26.980469 -49.9375 L 28.34375 -49.9375 L 28.34375 -20.613281 L 26.980469 -20.613281 L 26.980469 -21.972656 L 61.5 -21.972656 C 62.160156 -21.972656 62.683594 -21.734375 63.066406 -21.253906 C 63.378906 -20.863281 63.535156 -20.371094 63.535156 -19.773438 L 63.535156 -0.671875 C 63.535156 -0.0703125 63.34375 0.417969 62.96875 0.796875 C 62.589844 1.171875 62.101562 1.363281 61.5 1.363281 Z M 7.375 -1.363281 L 61.5 -1.363281 C 61.347656 -1.363281 61.195312 -1.285156 61.042969 -1.128906 C 60.886719 -0.976562 60.808594 -0.824219 60.808594 -0.671875 L 60.808594 -19.773438 L 60.8125 -19.789062 C 60.835938 -19.710938 60.878906 -19.632812 60.941406 -19.550781 C 61.101562 -19.351562 61.289062 -19.25 61.5 -19.25 L 25.617188 -19.25 L 25.617188 -51.300781 L 61.5 -51.300781 C 61.347656 -51.300781 61.195312 -51.222656 61.042969 -51.070312 C 60.886719 -50.914062 60.808594 -50.757812 60.808594 -50.597656 L 60.640625 -69.546875 C 60.640625 -69.394531 60.71875 -69.238281 60.875 -69.085938 C 61.027344 -68.929688 61.179688 -68.855469 61.332031 -68.855469 L 25.617188 -68.855469 L 25.617188 -97.71875 L 61.332031 -97.71875 C 61.179688 -97.71875 61.027344 -97.640625 60.875 -97.488281 C 60.71875 -97.335938 60.640625 -97.179688 60.640625 -97.027344 L 60.640625 -115.796875 L 60.648438 -115.8125 C 60.667969 -115.734375 60.710938 -115.652344 60.773438 -115.574219 C 60.933594 -115.375 61.121094 -115.273438 61.332031 -115.273438 L 7.542969 -115.273438 C 7.695312 -115.273438 7.847656 -115.351562 8 -115.503906 C 8.15625 -115.660156 8.230469 -115.8125 8.230469 -115.960938 L 8.066406 -0.839844 L 8.0625 -0.820312 C 8.039062 -0.902344 7.996094 -0.980469 7.933594 -1.058594 C 7.773438 -1.261719 7.585938 -1.363281 7.375 -1.363281 Z M 7.375 -1.363281 "/></g></g><g style="fill:#39bb01;fill-opacity:1;"><g transform="translate(431.819368, 208.40926)"><path style="stroke:none" d="M 7.375 1.363281 C 6.714844 1.363281 6.191406 1.121094 5.808594 0.640625 C 5.496094 0.253906 5.339844 -0.238281 5.339844 -0.839844 L 5.675781 -115.96875 C 5.675781 -116.566406 5.867188 -117.050781 6.242188 -117.429688 C 6.621094 -117.808594 7.109375 -117.996094 7.707031 -117.996094 L 41.558594 -117.996094 C 47.835938 -117.996094 53.625 -116.453125 58.917969 -113.371094 C 64.203125 -110.292969 68.410156 -106.171875 71.546875 -101.003906 C 74.695312 -95.8125 76.269531 -89.964844 76.269531 -83.453125 C 76.269531 -79.15625 75.625 -75.285156 74.339844 -71.835938 C 73.066406 -68.421875 71.554688 -65.519531 69.804688 -63.128906 C 68.066406 -60.746094 66.480469 -58.960938 65.054688 -57.773438 L 64.183594 -58.820312 L 65.195312 -59.730469 C 71.460938 -52.769531 74.59375 -44.589844 74.59375 -35.191406 L 74.761719 -0.84375 C 74.761719 -0.183594 74.558594 0.347656 74.152344 0.753906 C 73.746094 1.160156 73.21875 1.363281 72.5625 1.363281 L 53.625 1.363281 C 53.097656 1.363281 52.660156 1.230469 52.304688 0.964844 C 51.832031 0.609375 51.59375 0.117188 51.59375 -0.503906 L 51.59375 -35.191406 C 51.59375 -38.847656 50.296875 -42.023438 47.699219 -44.722656 C 45.121094 -47.402344 41.957031 -48.746094 38.207031 -48.746094 L 27.148438 -48.746094 L 27.148438 -50.105469 L 28.507812 -50.101562 L 28.34375 -0.832031 C 28.34375 -0.238281 28.1875 0.253906 27.875 0.640625 C 27.492188 1.121094 26.96875 1.363281 26.308594 1.363281 Z M 7.375 -1.363281 L 26.308594 -1.363281 C 26.097656 -1.363281 25.910156 -1.261719 25.75 -1.058594 C 25.6875 -0.980469 25.644531 -0.902344 25.621094 -0.820312 L 25.617188 -0.84375 L 25.789062 -51.46875 L 38.207031 -51.46875 C 42.726562 -51.46875 46.546875 -49.847656 49.664062 -46.609375 C 52.765625 -43.386719 54.316406 -39.578125 54.316406 -35.191406 L 54.316406 -0.503906 C 54.316406 -0.789062 54.191406 -1.027344 53.941406 -1.214844 C 53.808594 -1.3125 53.703125 -1.363281 53.625 -1.363281 L 72.5625 -1.363281 C 72.464844 -1.363281 72.351562 -1.296875 72.226562 -1.171875 C 72.101562 -1.046875 72.039062 -0.933594 72.039062 -0.832031 L 71.871094 -35.191406 C 71.871094 -43.890625 68.96875 -51.464844 63.171875 -57.910156 L 62.222656 -58.960938 L 63.3125 -59.867188 C 64.566406 -60.910156 66 -62.535156 67.609375 -64.734375 C 69.210938 -66.925781 70.601562 -69.609375 71.789062 -72.785156 C 72.960938 -75.929688 73.546875 -79.484375 73.546875 -83.453125 C 73.546875 -89.457031 72.105469 -94.835938 69.21875 -99.589844 C 66.324219 -104.363281 62.433594 -108.171875 57.546875 -111.015625 C 52.675781 -113.855469 47.347656 -115.273438 41.558594 -115.273438 L 7.707031 -115.273438 C 7.859375 -115.273438 8.015625 -115.351562 8.167969 -115.503906 C 8.324219 -115.660156 8.398438 -115.8125 8.398438 -115.960938 L 8.066406 -0.839844 L 8.0625 -0.820312 C 8.039062 -0.902344 7.996094 -0.980469 7.933594 -1.058594 C 7.773438 -1.261719 7.585938 -1.363281 7.375 -1.363281 Z M 27.148438 -71.578125 L 41.558594 -71.578125 C 44.65625 -71.578125 47.417969 -72.734375 49.835938 -75.054688 C 52.234375 -77.355469 53.4375 -80.15625 53.4375 -83.453125 C 53.4375 -86.648438 52.261719 -89.394531 49.90625 -91.699219 C 47.546875 -94.007812 44.765625 -95.164062 41.558594 -95.164062 L 27.148438 -95.164062 L 27.148438 -96.523438 L 28.507812 -96.523438 L 28.507812 -70.214844 L 27.148438 -70.214844 Z M 25.785156 -68.855469 L 25.785156 -97.886719 L 41.558594 -97.886719 C 45.503906 -97.886719 48.921875 -96.472656 51.8125 -93.644531 C 54.710938 -90.808594 56.160156 -87.410156 56.160156 -83.453125 C 56.160156 -79.378906 54.679688 -75.925781 51.71875 -73.085938 C 48.773438 -70.265625 45.386719 -68.855469 41.558594 -68.855469 Z M 25.785156 -68.855469 "/></g></g><g style="fill:#39bb01;fill-opacity:1;"><g transform="translate(511.748449, 208.40926)"><path style="stroke:none" d="M 37.371094 3.039062 C 31.082031 3.039062 25.371094 1.460938 20.234375 -1.6875 C 15.125 -4.824219 11.03125 -9.03125 7.957031 -14.3125 C 4.871094 -19.609375 3.332031 -25.507812 3.332031 -32.007812 L 3.332031 -85.128906 C 3.332031 -91.40625 4.871094 -97.195312 7.957031 -102.488281 C 11.03125 -107.773438 15.15625 -111.980469 20.324219 -115.117188 C 25.511719 -118.265625 31.195312 -119.839844 37.371094 -119.839844 C 43.765625 -119.839844 49.554688 -118.296875 54.742188 -115.207031 C 59.914062 -112.125 64.015625 -107.96875 67.039062 -102.738281 C 70.0625 -97.5 71.578125 -91.628906 71.578125 -85.128906 L 71.578125 -77.421875 C 71.578125 -76.761719 71.335938 -76.238281 70.855469 -75.855469 C 70.46875 -75.542969 69.976562 -75.390625 69.378906 -75.390625 L 50.609375 -75.390625 C 50.007812 -75.390625 49.519531 -75.578125 49.144531 -75.957031 C 48.765625 -76.332031 48.578125 -76.820312 48.578125 -77.421875 L 48.578125 -83.789062 C 48.578125 -87.699219 47.484375 -90.921875 45.304688 -93.460938 C 43.171875 -95.9375 40.527344 -97.175781 37.371094 -97.175781 C 34.523438 -97.175781 31.976562 -95.976562 29.734375 -93.582031 C 27.464844 -91.164062 26.332031 -88.347656 26.332031 -85.128906 L 26.332031 -32.007812 C 26.332031 -28.679688 27.4375 -25.832031 29.648438 -23.46875 C 31.839844 -21.132812 34.414062 -19.960938 37.371094 -19.960938 C 40.550781 -19.960938 43.207031 -21.105469 45.339844 -23.386719 C 47.5 -25.691406 48.578125 -28.566406 48.578125 -32.007812 L 48.578125 -40.21875 L 49.9375 -40.21875 L 49.9375 -38.855469 L 38.207031 -38.855469 C 37.550781 -38.855469 37.023438 -39.058594 36.617188 -39.464844 C 36.210938 -39.871094 36.007812 -40.402344 36.007812 -41.058594 L 36.007812 -59.824219 C 36.007812 -60.480469 36.210938 -61.011719 36.617188 -61.417969 C 37.023438 -61.824219 37.550781 -62.023438 38.207031 -62.023438 L 69.546875 -62.023438 C 70.203125 -62.023438 70.726562 -61.785156 71.109375 -61.304688 C 71.421875 -60.917969 71.578125 -60.421875 71.578125 -59.824219 L 71.578125 -32.007812 C 71.578125 -25.507812 70.035156 -19.609375 66.953125 -14.3125 C 63.875 -9.03125 59.78125 -4.824219 54.671875 -1.6875 C 49.539062 1.460938 43.769531 3.039062 37.371094 3.039062 Z M 37.371094 0.3125 C 43.257812 0.3125 48.550781 -1.128906 53.25 -4.007812 C 57.96875 -6.90625 61.753906 -10.796875 64.597656 -15.683594 C 67.433594 -20.554688 68.855469 -25.996094 68.855469 -32.007812 L 68.855469 -59.824219 L 68.859375 -59.839844 C 68.878906 -59.761719 68.921875 -59.683594 68.984375 -59.601562 C 69.144531 -59.402344 69.332031 -59.300781 69.546875 -59.300781 L 38.207031 -59.300781 C 38.304688 -59.300781 38.417969 -59.363281 38.542969 -59.492188 C 38.667969 -59.617188 38.730469 -59.730469 38.730469 -59.824219 L 38.730469 -41.058594 C 38.730469 -41.152344 38.667969 -41.265625 38.542969 -41.390625 C 38.417969 -41.515625 38.304688 -41.582031 38.207031 -41.582031 L 51.300781 -41.582031 L 51.300781 -32.007812 C 51.300781 -27.851562 49.976562 -24.355469 47.332031 -21.527344 C 44.660156 -18.667969 41.339844 -17.238281 37.371094 -17.238281 C 33.625 -17.238281 30.390625 -18.695312 27.660156 -21.609375 C 24.960938 -24.496094 23.609375 -27.960938 23.609375 -32.007812 L 23.609375 -85.128906 C 23.609375 -89.0625 24.988281 -92.503906 27.746094 -95.445312 C 30.527344 -98.414062 33.738281 -99.898438 37.371094 -99.898438 C 41.363281 -99.898438 44.695312 -98.34375 47.367188 -95.234375 C 49.988281 -92.1875 51.300781 -88.371094 51.300781 -83.789062 L 51.300781 -77.421875 C 51.300781 -77.574219 51.222656 -77.726562 51.070312 -77.882812 C 50.914062 -78.035156 50.761719 -78.113281 50.609375 -78.113281 L 69.378906 -78.113281 L 69.394531 -78.109375 C 69.3125 -78.085938 69.234375 -78.046875 69.15625 -77.980469 C 68.953125 -77.820312 68.855469 -77.632812 68.855469 -77.421875 L 68.855469 -85.128906 C 68.855469 -91.144531 67.460938 -96.558594 64.679688 -101.375 C 61.894531 -106.195312 58.117188 -110.027344 53.347656 -112.867188 C 48.589844 -115.699219 43.265625 -117.117188 37.371094 -117.117188 C 31.703125 -117.117188 26.492188 -115.675781 21.738281 -112.789062 C 16.964844 -109.894531 13.152344 -106.003906 10.308594 -101.117188 C 7.472656 -96.246094 6.054688 -90.917969 6.054688 -85.128906 L 6.054688 -32.007812 C 6.054688 -25.996094 7.472656 -20.554688 10.308594 -15.683594 C 13.15625 -10.796875 16.9375 -6.90625 21.660156 -4.007812 C 26.355469 -1.128906 31.59375 0.3125 37.371094 0.3125 Z M 37.371094 0.3125 "/></g></g><g style="fill:#39bb01;fill-opacity:1;"><g transform="translate(584.471992, 208.40926)"><path style="stroke:none" d="M 22.289062 1.363281 C 21.667969 1.363281 21.175781 1.125 20.820312 0.648438 C 20.554688 0.296875 20.421875 -0.144531 20.421875 -0.671875 L 20.589844 -48.265625 L 21.953125 -48.261719 L 20.660156 -47.835938 L -1.8125 -115.585938 L -1.824219 -115.632812 C -1.984375 -116.277344 -1.894531 -116.828125 -1.550781 -117.285156 C -1.195312 -117.757812 -0.675781 -117.996094 0 -117.996094 L 18.601562 -117.996094 C 19.867188 -117.996094 20.644531 -117.429688 20.925781 -116.292969 L 19.605469 -115.964844 L 20.917969 -116.324219 L 33.320312 -71.246094 L 32.007812 -70.886719 L 30.695312 -71.25 L 43.265625 -116.332031 L 44.574219 -115.964844 L 43.253906 -116.292969 C 43.539062 -117.429688 44.257812 -117.996094 45.414062 -117.996094 L 64.183594 -117.996094 C 64.859375 -117.996094 65.375 -117.757812 65.734375 -117.285156 C 66.074219 -116.828125 66.167969 -116.277344 66.007812 -115.632812 L 65.992188 -115.582031 L 43.351562 -48.496094 L 42.0625 -48.933594 L 43.425781 -48.9375 L 43.589844 -0.675781 C 43.589844 -0.0742188 43.402344 0.417969 43.023438 0.796875 C 42.648438 1.171875 42.160156 1.363281 41.558594 1.363281 Z M 22.289062 -1.363281 L 41.558594 -1.363281 C 41.40625 -1.363281 41.253906 -1.285156 41.097656 -1.128906 C 40.945312 -0.976562 40.867188 -0.820312 40.867188 -0.664062 L 40.699219 -49.152344 L 63.394531 -116.398438 L 64.683594 -115.964844 L 63.363281 -116.292969 C 63.316406 -116.097656 63.378906 -115.882812 63.554688 -115.648438 C 63.742188 -115.398438 63.953125 -115.273438 64.183594 -115.273438 L 45.414062 -115.273438 C 45.675781 -115.273438 45.835938 -115.394531 45.898438 -115.632812 L 45.890625 -115.617188 L 32 -65.785156 L 18.289062 -115.617188 L 18.285156 -115.632812 C 18.316406 -115.515625 18.390625 -115.417969 18.515625 -115.335938 C 18.5625 -115.304688 18.605469 -115.28125 18.648438 -115.273438 C 18.644531 -115.273438 18.628906 -115.273438 18.601562 -115.273438 L 0 -115.273438 C 0.230469 -115.273438 0.441406 -115.398438 0.628906 -115.648438 C 0.804688 -115.882812 0.867188 -116.097656 0.816406 -116.292969 L -0.503906 -115.964844 L 0.789062 -116.394531 L 23.316406 -48.480469 L 23.148438 -0.671875 C 23.148438 -0.75 23.097656 -0.855469 23 -0.984375 C 22.8125 -1.234375 22.574219 -1.363281 22.289062 -1.363281 Z M 22.289062 -1.363281 "/></g></g><g style="fill:#7ed957;fill-opacity:1;"><g transform="translate(216.496668, 208.40926)"><path style="stroke:none" d="M 22.28125 0 C 21.945312 0 21.78125 -0.222656 21.78125 -0.671875 L 21.953125 -48.265625 L -0.5 -115.96875 C -0.613281 -116.414062 -0.445312 -116.640625 0 -116.640625 L 18.59375 -116.640625 C 19.15625 -116.640625 19.492188 -116.414062 19.609375 -115.96875 L 32 -70.890625 L 44.578125 -115.96875 C 44.691406 -116.414062 44.96875 -116.640625 45.40625 -116.640625 L 64.1875 -116.640625 C 64.632812 -116.640625 64.800781 -116.414062 64.6875 -115.96875 L 42.0625 -48.9375 L 42.234375 -0.671875 C 42.234375 -0.222656 42.007812 0 41.5625 0 Z M 22.28125 0 "/></g></g><g style="fill:#7ed957;fill-opacity:1;"><g transform="translate(283.690751, 208.40926)"><path style="stroke:none" d="M 8.21875 0 C 7.320312 0 6.875 -0.390625 6.875 -1.171875 L 6.703125 -115.296875 C 6.703125 -116.191406 7.148438 -116.640625 8.046875 -116.640625 L 23.125 -116.640625 L 51.453125 -50.609375 L 50.609375 -115.296875 C 50.609375 -116.191406 51.109375 -116.640625 52.109375 -116.640625 L 68.703125 -116.640625 C 69.378906 -116.640625 69.71875 -116.191406 69.71875 -115.296875 L 69.875 -1 C 69.875 -0.332031 69.597656 0 69.046875 0 L 54.296875 0 L 25.296875 -61.671875 L 26.484375 -1.34375 C 26.484375 -0.445312 25.976562 0 24.96875 0 Z M 8.21875 0 "/></g></g><g style="fill:#7ed957;fill-opacity:1;"><g transform="translate(361.441519, 208.40926)"><path style="stroke:none" d="M 7.375 0 C 6.925781 0 6.703125 -0.28125 6.703125 -0.84375 L 6.875 -115.96875 C 6.875 -116.414062 7.097656 -116.640625 7.546875 -116.640625 L 61.328125 -116.640625 C 61.773438 -116.640625 62 -116.359375 62 -115.796875 L 62 -97.03125 C 62 -96.582031 61.773438 -96.359375 61.328125 -96.359375 L 26.984375 -96.359375 L 26.984375 -70.21875 L 61.328125 -70.21875 C 61.773438 -70.21875 62 -69.992188 62 -69.546875 L 62.171875 -50.609375 C 62.171875 -50.160156 61.945312 -49.9375 61.5 -49.9375 L 26.984375 -49.9375 L 26.984375 -20.609375 L 61.5 -20.609375 C 61.945312 -20.609375 62.171875 -20.332031 62.171875 -19.78125 L 62.171875 -0.671875 C 62.171875 -0.222656 61.945312 0 61.5 0 Z M 7.375 0 "/></g></g><g style="fill:#7ed957;fill-opacity:1;"><g transform="translate(431.819368, 208.40926)"><path style="stroke:none" d="M 7.375 0 C 6.925781 0 6.703125 -0.28125 6.703125 -0.84375 L 7.03125 -115.96875 C 7.03125 -116.414062 7.253906 -116.640625 7.703125 -116.640625 L 41.5625 -116.640625 C 47.59375 -116.640625 53.148438 -115.15625 58.234375 -112.1875 C 63.316406 -109.226562 67.363281 -105.265625 70.375 -100.296875 C 73.394531 -95.328125 74.90625 -89.710938 74.90625 -83.453125 C 74.90625 -79.316406 74.289062 -75.597656 73.0625 -72.296875 C 71.832031 -69.003906 70.378906 -66.210938 68.703125 -63.921875 C 67.023438 -61.640625 65.519531 -59.9375 64.1875 -58.8125 C 70.21875 -52.113281 73.234375 -44.238281 73.234375 -35.1875 L 73.40625 -0.84375 C 73.40625 -0.28125 73.125 0 72.5625 0 L 53.625 0 C 53.175781 0 52.953125 -0.164062 52.953125 -0.5 L 52.953125 -35.1875 C 52.953125 -39.207031 51.523438 -42.695312 48.671875 -45.65625 C 45.828125 -48.625 42.335938 -50.109375 38.203125 -50.109375 L 27.140625 -50.109375 L 26.984375 -0.84375 C 26.984375 -0.28125 26.757812 0 26.3125 0 Z M 27.140625 -70.21875 L 41.5625 -70.21875 C 45.019531 -70.21875 48.085938 -71.5 50.765625 -74.0625 C 53.453125 -76.632812 54.796875 -79.765625 54.796875 -83.453125 C 54.796875 -87.023438 53.484375 -90.097656 50.859375 -92.671875 C 48.234375 -95.242188 45.132812 -96.53125 41.5625 -96.53125 L 27.140625 -96.53125 Z M 27.140625 -70.21875 "/></g></g><g style="fill:#7ed957;fill-opacity:1;"><g transform="translate(511.748449, 208.40926)"><path style="stroke:none" d="M 37.375 1.671875 C 31.34375 1.671875 25.867188 0.164062 20.953125 -2.84375 C 16.035156 -5.863281 12.09375 -9.914062 9.125 -15 C 6.164062 -20.082031 4.6875 -25.75 4.6875 -32 L 4.6875 -85.125 C 4.6875 -91.15625 6.164062 -96.710938 9.125 -101.796875 C 12.09375 -106.878906 16.0625 -110.929688 21.03125 -113.953125 C 26 -116.972656 31.445312 -118.484375 37.375 -118.484375 C 43.519531 -118.484375 49.078125 -117 54.046875 -114.03125 C 59.015625 -111.070312 62.953125 -107.078125 65.859375 -102.046875 C 68.765625 -97.023438 70.21875 -91.382812 70.21875 -85.125 L 70.21875 -77.421875 C 70.21875 -76.972656 69.9375 -76.75 69.375 -76.75 L 50.609375 -76.75 C 50.160156 -76.75 49.9375 -76.972656 49.9375 -77.421875 L 49.9375 -83.796875 C 49.9375 -88.035156 48.734375 -91.550781 46.328125 -94.34375 C 43.929688 -97.132812 40.945312 -98.53125 37.375 -98.53125 C 34.132812 -98.53125 31.253906 -97.191406 28.734375 -94.515625 C 26.222656 -91.835938 24.96875 -88.707031 24.96875 -85.125 L 24.96875 -32 C 24.96875 -28.320312 26.195312 -25.164062 28.65625 -22.53125 C 31.113281 -19.90625 34.019531 -18.59375 37.375 -18.59375 C 40.945312 -18.59375 43.929688 -19.878906 46.328125 -22.453125 C 48.734375 -25.023438 49.9375 -28.207031 49.9375 -32 L 49.9375 -40.21875 L 38.203125 -40.21875 C 37.648438 -40.21875 37.375 -40.5 37.375 -41.0625 L 37.375 -59.828125 C 37.375 -60.378906 37.648438 -60.65625 38.203125 -60.65625 L 69.546875 -60.65625 C 69.992188 -60.65625 70.21875 -60.378906 70.21875 -59.828125 L 70.21875 -32 C 70.21875 -25.75 68.734375 -20.082031 65.765625 -15 C 62.804688 -9.914062 58.867188 -5.863281 53.953125 -2.84375 C 49.046875 0.164062 43.519531 1.671875 37.375 1.671875 Z M 37.375 1.671875 "/></g></g><g style="fill:#7ed957;fill-opacity:1;"><g transform="translate(584.471992, 208.40926)"><path style="stroke:none" d="M 22.28125 0 C 21.945312 0 21.78125 -0.222656 21.78125 -0.671875 L 21.953125 -48.265625 L -0.5 -115.96875 C -0.613281 -116.414062 -0.445312 -116.640625 0 -116.640625 L 18.59375 -116.640625 C 19.15625 -116.640625 19.492188 -116.414062 19.609375 -115.96875 L 32 -70.890625 L 44.578125 -115.96875 C 44.691406 -116.414062 44.96875 -116.640625 45.40625 -116.640625 L 64.1875 -116.640625 C 64.632812 -116.640625 64.800781 -116.414062 64.6875 -115.96875 L 42.0625 -48.9375 L 42.234375 -0.671875 C 42.234375 -0.222656 42.007812 0 41.5625 0 Z M 22.28125 0 "/></g></g><g clip-rule="nonzero" clip-path="url(#b95d77bc18)"><path style=" stroke:none;fill-rule:nonzero;fill:#ff05bc;fill-opacity:1;" d="M 107.207031 239.257812 C 107.207031 256.660156 93 270.867188 75.546875 270.867188 C 58.144531 270.867188 43.9375 256.660156 43.9375 239.257812 C 43.9375 221.804688 58.144531 207.648438 75.546875 207.648438 C 93 207.601562 107.207031 221.804688 107.207031 239.257812 Z M 61.34375 239.257812 C 61.34375 247.066406 67.738281 253.460938 75.546875 253.460938 C 83.355469 253.460938 89.753906 247.066406 89.753906 239.257812 C 89.753906 231.449219 83.355469 225.050781 75.546875 225.050781 C 67.738281 225.050781 61.34375 231.402344 61.34375 239.257812 Z M 61.34375 239.257812 "/></g><g style="fill:#71008c;fill-opacity:1;"><g transform="translate(217.785571, 209.893651)"><path style="stroke:none" d="M 2.859375 -59.9375 C 2.859375 -49.65625 0.242188 -40.28125 -4.984375 -31.8125 C -10.222656 -23.351562 -17.171875 -16.601562 -25.828125 -11.5625 C -34.484375 -6.519531 -44.046875 -4 -54.515625 -4 L -67.640625 -4 C -68.585938 -4 -69.0625 -4.472656 -69.0625 -5.421875 L -69.0625 -37.390625 C -69.0625 -38.148438 -68.585938 -38.53125 -67.640625 -38.53125 L -54.515625 -38.53125 C -48.234375 -38.53125 -42.851562 -40.617188 -38.375 -44.796875 C -33.90625 -48.984375 -31.671875 -54.03125 -31.671875 -59.9375 C -31.671875 -65.832031 -33.953125 -70.875 -38.515625 -75.0625 C -43.085938 -79.25 -48.421875 -81.34375 -54.515625 -81.34375 C -61.546875 -81.34375 -67.632812 -76.773438 -72.78125 -67.640625 C -74.488281 -64.597656 -77.148438 -59.84375 -80.765625 -53.375 C -84.378906 -46.90625 -87.804688 -40.816406 -91.046875 -35.109375 C -97.128906 -24.640625 -104.785156 -16.882812 -114.015625 -11.84375 C -123.242188 -6.800781 -133.660156 -4.28125 -145.265625 -4.28125 C -155.921875 -4.28125 -165.476562 -6.847656 -173.9375 -11.984375 C -182.40625 -17.117188 -189.113281 -23.921875 -194.0625 -32.390625 C -199.007812 -40.859375 -201.484375 -50.039062 -201.484375 -59.9375 C -201.484375 -70.019531 -198.960938 -79.289062 -193.921875 -87.75 C -188.878906 -96.21875 -182.125 -102.972656 -173.65625 -108.015625 C -165.1875 -113.054688 -155.722656 -115.578125 -145.265625 -115.578125 L -121.859375 -115.578125 C -121.097656 -115.578125 -120.71875 -115.195312 -120.71875 -114.4375 L -120.71875 -82.484375 C -120.71875 -81.722656 -121.097656 -81.34375 -121.859375 -81.34375 L -145.265625 -81.046875 C -151.921875 -81.046875 -157.34375 -78.953125 -161.53125 -74.765625 C -165.71875 -70.585938 -167.8125 -65.644531 -167.8125 -59.9375 C -167.8125 -54.03125 -165.570312 -48.984375 -161.09375 -44.796875 C -156.625 -40.617188 -151.347656 -38.53125 -145.265625 -38.53125 C -138.984375 -38.53125 -133.75 -39.859375 -129.5625 -42.515625 C -125.375 -45.179688 -121.378906 -50.035156 -117.578125 -57.078125 C -117.003906 -58.023438 -116.003906 -59.878906 -114.578125 -62.640625 C -113.148438 -65.398438 -111.53125 -68.394531 -109.71875 -71.625 C -107.914062 -74.863281 -106.347656 -77.765625 -105.015625 -80.328125 C -103.691406 -82.898438 -102.835938 -84.472656 -102.453125 -85.046875 C -97.128906 -94.554688 -90.613281 -102.070312 -82.90625 -107.59375 C -75.195312 -113.113281 -65.734375 -115.875 -54.515625 -115.875 C -43.671875 -115.875 -33.914062 -113.351562 -25.25 -108.3125 C -16.59375 -103.269531 -9.742188 -96.515625 -4.703125 -88.046875 C 0.335938 -79.578125 2.859375 -70.207031 2.859375 -59.9375 Z M 2.859375 -59.9375 "/></g></g><g clip-rule="nonzero" clip-path="url(#f4df0ac938)"><path style=" stroke:none;fill-rule:nonzero;fill:#0cb7f2;fill-opacity:1;" d="M 191.875 60.765625 C 191.875 78.171875 177.671875 92.375 160.21875 92.375 C 142.816406 92.375 128.609375 78.171875 128.609375 60.765625 C 128.609375 43.316406 142.816406 29.15625 160.21875 29.15625 C 177.671875 29.109375 191.875 43.316406 191.875 60.765625 Z M 146.015625 60.765625 C 146.015625 68.574219 152.410156 74.972656 160.21875 74.972656 C 168.027344 74.972656 174.425781 68.574219 174.425781 60.765625 C 174.425781 52.957031 168.027344 46.5625 160.21875 46.5625 C 152.410156 46.5625 146.015625 52.910156 146.015625 60.765625 Z M 146.015625 60.765625 "/></g><path style=" stroke:none;fill-rule:nonzero;fill:#7ed957;fill-opacity:1;" d="M 699.140625 232.890625 L 715.832031 222.265625 C 710.566406 229.871094 704.699219 236.234375 698.785156 240.992188 C 687.96875 249.726562 676.984375 253.039062 669.328125 248.625 L 655.070312 240.390625 C 657.550781 241.824219 660.382812 242.453125 663.457031 242.328125 C 674.425781 241.929688 688.386719 232.105469 699.84375 216.4375 Z M 715.804688 151.652344 C 721.265625 161.949219 719.195312 180.488281 710.070312 199.417969 L 705.265625 196.648438 L 704.722656 209.179688 L 704.070312 224.335938 L 719.875 215.917969 L 729.640625 210.722656 L 724.324219 207.65625 C 735.851562 183.769531 736.109375 160.476562 724.1875 153.59375 L 709.933594 145.359375 C 712.417969 146.792969 714.371094 148.925781 715.804688 151.652344 Z M 715.804688 151.652344 "/><path style=" stroke:none;fill-rule:nonzero;fill:#71008c;fill-opacity:1;" d="M 661.949219 215.265625 C 659.988281 224.238281 659.957031 232.351562 661.882812 238.527344 C 659.496094 238.460938 657.277344 237.871094 655.28125 236.71875 C 649.269531 233.242188 646.558594 225.328125 647 215.265625 Z M 706.855469 147.378906 C 696.964844 141.664062 681.113281 149.699219 667.878906 165.867188 L 689.476562 165.867188 C 696.933594 158.59375 704.75 153.765625 711.734375 152.183594 C 710.480469 150.160156 708.851562 148.53125 706.855469 147.378906 Z M 706.855469 147.378906 "/><g clip-rule="nonzero" clip-path="url(#f32f268498)"><path style=" stroke:none;fill-rule:nonzero;fill:#71008c;fill-opacity:1;" d="M 632.785156 201.269531 L 632.785156 197.746094 L 639.109375 197.746094 L 639.109375 201.695312 C 639.109375 204.738281 640.445312 205.890625 642.574219 205.890625 C 644.703125 205.890625 646.035156 204.859375 646.035156 201.089844 L 646.035156 197.75 C 646.035156 193.792969 644.699219 192.335938 641.660156 192.335938 L 639.410156 192.335938 L 639.410156 186.253906 L 642.019531 186.253906 C 644.519531 186.253906 646.035156 185.15625 646.035156 181.757812 L 646.035156 179.386719 C 646.035156 175.550781 644.699219 174.519531 642.574219 174.519531 C 640.441406 174.519531 639.109375 175.671875 639.109375 178.714844 L 639.109375 181.453125 L 632.785156 181.453125 L 632.785156 179.140625 C 632.785156 172.332031 636.191406 168.441406 642.761719 168.441406 C 649.332031 168.441406 652.734375 172.332031 652.734375 179.140625 L 652.734375 180.238281 C 652.734375 184.796875 651.277344 187.597656 648.050781 188.933594 L 648.050781 189.050781 C 651.394531 190.511719 652.734375 193.609375 652.734375 197.929688 L 652.734375 201.269531 C 652.734375 208.082031 649.332031 211.972656 642.761719 211.972656 C 636.191406 211.972656 632.785156 208.082031 632.785156 201.269531 Z M 656.820312 201.269531 L 656.820312 179.507812 C 656.820312 172.332031 660.105469 168.441406 667.03125 168.441406 C 673.597656 168.441406 677.007812 172.332031 677.007812 179.140625 L 677.007812 180.238281 L 670.675781 180.238281 L 670.675781 178.71875 C 670.675781 175.675781 669.339844 174.523438 667.210938 174.523438 C 664.839844 174.523438 663.503906 175.675781 663.503906 179.753906 L 663.503906 187.46875 L 663.621094 187.46875 C 664.777344 185.042969 666.722656 183.757812 669.699219 183.757812 C 674.625 183.757812 677.117188 187.222656 677.117188 193.484375 L 677.117188 201.265625 C 677.117188 208.078125 673.535156 211.96875 666.964844 211.96875 C 660.398438 211.96875 656.820312 208.082031 656.820312 201.269531 Z M 663.503906 201.695312 C 663.503906 204.738281 664.839844 205.832031 666.964844 205.832031 C 669.097656 205.832031 670.429688 204.734375 670.429688 201.695312 L 670.429688 194.039062 C 670.429688 190.996094 669.09375 189.84375 666.964844 189.84375 C 664.835938 189.84375 663.503906 190.996094 663.503906 194.039062 Z M 680.78125 201.269531 L 680.78125 179.140625 C 680.78125 172.332031 684.367188 168.441406 690.941406 168.441406 C 697.507812 168.441406 701.089844 172.332031 701.089844 179.140625 L 701.089844 201.269531 C 701.089844 208.082031 697.507812 211.972656 690.941406 211.972656 C 684.367188 211.972656 680.78125 208.082031 680.78125 201.269531 Z M 687.476562 201.695312 C 687.476562 204.738281 688.8125 205.890625 690.941406 205.890625 C 693.066406 205.890625 694.398438 204.738281 694.398438 201.695312 L 694.398438 178.714844 C 694.398438 175.671875 693.058594 174.519531 690.941406 174.519531 C 688.808594 174.519531 687.476562 175.671875 687.476562 178.714844 Z M 707.753906 176.765625 C 710.050781 176.765625 711.914062 174.90625 711.914062 172.605469 C 711.914062 170.308594 710.054688 168.441406 707.753906 168.441406 C 705.457031 168.441406 703.59375 170.304688 703.59375 172.605469 C 703.59375 174.898438 705.453125 176.765625 707.753906 176.765625 Z M 707.753906 176.765625 "/></g></g></svg>